<svg width="38" height="38" viewBox="0 0 38 38" fill="none" xmlns="http://www.w3.org/2000/svg">
<path d="M10.25 22.5C9.48609 22.5011 8.73164 22.669 8.03929 22.9918C7.34695 23.3146 6.73339 23.7846 6.24143 24.369C5.74948 24.9534 5.39098 25.6381 5.19097 26.3754C4.99095 27.1126 4.95424 27.8846 5.08338 28.6375C5.21252 29.3905 5.50442 30.1061 5.93869 30.7346C6.37296 31.363 6.93914 31.8891 7.59773 32.2762C8.25631 32.6632 8.99143 32.9019 9.75178 32.9756C10.5121 33.0492 11.2794 32.956 12 32.7025" stroke="black" stroke-width="2.625" stroke-linecap="round" stroke-linejoin="round"/>
<path d="M5.46209 25.3088C4.41483 24.8046 3.50959 24.0476 2.82808 23.106C2.14657 22.1645 1.71024 21.068 1.55847 19.9157C1.4067 18.7633 1.54426 17.5913 1.95874 16.5054C2.37323 15.4195 3.05159 14.4539 3.93259 13.6958M3.98509 13.554C3.41117 12.6952 3.15962 11.661 3.27498 10.6345C3.39034 9.60808 3.86517 8.65552 4.6154 7.94553C5.36564 7.23553 6.34289 6.81387 7.37416 6.75521C8.40542 6.69655 9.42419 7.00467 10.2501 7.62502M10.6666 7.73877C10.3874 7.1456 10.2451 6.49727 10.2502 5.8417C10.2553 5.18614 10.4077 4.5401 10.6961 3.95135C10.9844 3.36259 11.4014 2.84616 11.9162 2.44024C12.431 2.03432 13.0305 1.74929 13.6702 1.6062C14.31 1.46312 14.9738 1.46565 15.6124 1.6136C16.2511 1.76155 16.8484 2.05114 17.3601 2.46097C17.8718 2.8708 18.2848 3.39038 18.5687 3.98132C18.8525 4.57226 19 5.21943 19.0001 5.87502V33C19.0001 33.9283 18.6313 34.8185 17.975 35.4749C17.3186 36.1313 16.4284 36.5 15.5001 36.5C14.5718 36.5 13.6816 36.1313 13.0252 35.4749C12.3688 34.8185 12.0001 33.9283 12.0001 33M19.0001 10.25C19.0001 11.6424 19.5532 12.9778 20.5378 13.9623C21.5223 14.9469 22.8577 15.5 24.2501 15.5M27.7501 22.5C28.514 22.5012 29.2684 22.669 29.9608 22.9918C30.6531 23.3146 31.2667 23.7846 31.7587 24.369C32.2506 24.9534 32.6091 25.6381 32.8091 26.3754C33.0091 27.1126 33.0458 27.8847 32.9167 28.6376C32.7876 29.3905 32.4957 30.1061 32.0614 30.7346C31.6271 31.363 31.0609 31.8892 30.4024 32.2762C29.7438 32.6633 29.0087 32.9019 28.2483 32.9756C27.488 33.0492 26.7207 32.956 26.0001 32.7025" stroke="black" stroke-width="2.625" stroke-linecap="round" stroke-linejoin="round"/>
<path d="M32.538 25.3088C33.5853 24.8046 34.4905 24.0476 35.172 23.106C35.8535 22.1645 36.2898 21.068 36.4416 19.9157C36.5934 18.7633 36.4558 17.5913 36.0413 16.5054C35.6269 15.4195 34.9485 14.4539 34.0675 13.6958M34.015 13.554C34.5889 12.6952 34.8405 11.661 34.7251 10.6345C34.6098 9.60808 34.1349 8.65552 33.3847 7.94553C32.6345 7.23553 31.6572 6.81387 30.6259 6.75521C29.5947 6.69655 28.5759 7.00467 27.75 7.62502M19 5.87502C19.0001 5.21943 19.1475 4.57226 19.4314 3.98132C19.7153 3.39038 20.1283 2.8708 20.64 2.46097C21.1517 2.05114 21.749 1.76155 22.3877 1.6136C23.0263 1.46565 23.6901 1.46312 24.3299 1.6062C24.9696 1.74929 25.5691 2.03432 26.0839 2.44024C26.5987 2.84616 27.0157 3.36259 27.304 3.95135C27.5924 4.5401 27.7448 5.18614 27.7499 5.8417C27.755 6.49727 27.6127 7.1456 27.3335 7.73877M26 33C26 33.9283 25.6312 34.8185 24.9749 35.4749C24.3185 36.1313 23.4283 36.5 22.5 36.5C21.5717 36.5 20.6815 36.1313 20.0251 35.4749C19.3687 34.8185 19 33.9283 19 33" stroke="black" stroke-width="2.625" stroke-linecap="round" stroke-linejoin="round"/>
</svg>

