<svg width="41" height="40" viewBox="0 0 41 40" fill="none" xmlns="http://www.w3.org/2000/svg">
<path d="M20.2735 36.3087C11.1584 36.3087 3.76953 28.9199 3.76953 19.8047C3.76953 10.6896 11.1584 3.30078 20.2735 3.30078C29.3886 3.30078 36.7775 10.6896 36.7775 19.8047C36.7775 28.9199 29.3886 36.3087 20.2735 36.3087ZM20.2735 13.2032C20.7112 13.2032 21.131 13.377 21.4405 13.6866C21.75 13.9961 21.9239 14.4158 21.9239 14.8536C21.9239 15.2913 21.75 15.7111 21.4405 16.0206C21.131 16.3301 20.7112 16.504 20.2735 16.504C19.8358 16.504 19.416 16.3301 19.1065 16.0206C18.797 15.7111 18.6231 15.2913 18.6231 14.8536C18.6231 14.4158 18.797 13.9961 19.1065 13.6866C19.416 13.377 19.8358 13.2032 20.2735 13.2032ZM20.2735 19.8047C21.5866 19.8047 22.846 19.2831 23.7745 18.3546C24.703 17.426 25.2247 16.1667 25.2247 14.8536C25.2247 13.5404 24.703 12.2811 23.7745 11.3525C22.846 10.424 21.5866 9.90237 20.2735 9.90237C18.9604 9.90237 17.701 10.424 16.7725 11.3525C15.8439 12.2811 15.3223 13.5404 15.3223 14.8536C15.3223 16.1667 15.8439 17.426 16.7725 18.3546C17.701 19.2831 18.9604 19.8047 20.2735 19.8047ZM20.2735 24.7559C21.1489 24.7559 21.9885 25.1037 22.6075 25.7227C23.2265 26.3417 23.5743 27.1813 23.5743 28.0567H26.8751C26.8751 26.3059 26.1796 24.6267 24.9415 23.3887C23.7035 22.1507 22.0243 21.4551 20.2735 21.4551C18.5226 21.4551 16.8435 22.1507 15.6055 23.3887C14.3674 24.6267 13.6719 26.3059 13.6719 28.0567H16.9727C16.9727 27.1813 17.3205 26.3417 17.9395 25.7227C18.5585 25.1037 19.3981 24.7559 20.2735 24.7559Z" fill="black"/>
</svg>