<svg width="100" height="100" viewBox="0 0 100 100" fill="none" xmlns="http://www.w3.org/2000/svg">
<path d="M26.6667 60.6667H14.1667C13.0616 60.6667 12.0018 60.2277 11.2204 59.4463C10.439 58.6649 10 57.6051 10 56.5V23.1667C10 22.0616 10.439 21.0018 11.2204 20.2204C12.0018 19.439 13.0616 19 14.1667 19H64.1667C65.2717 19 66.3315 19.439 67.1129 20.2204C67.8943 21.0018 68.3333 22.0616 68.3333 23.1667V35.6667" stroke="black" stroke-width="8.33333" stroke-linecap="round" stroke-linejoin="round"/>
<path d="M47.5001 77.3333H30.8334C29.7283 77.3333 28.6685 76.8943 27.8871 76.1129C27.1057 75.3315 26.6667 74.2717 26.6667 73.1667V39.8333C26.6667 38.7283 27.1057 37.6684 27.8871 36.887C28.6685 36.1056 29.7283 35.6667 30.8334 35.6667H80.8334C81.9385 35.6667 82.9983 36.1056 83.7797 36.887C84.5611 37.6684 85.0001 38.7283 85.0001 39.8333V50.25" stroke="black" stroke-width="8.33333" stroke-linecap="round" stroke-linejoin="round"/>
<path d="M64.1667 77.3333H89.1667M76.6667 64.8333V89.8333M47.5 56.5C47.5 58.7101 48.378 60.8297 49.9408 62.3925C51.5036 63.9553 53.6232 64.8333 55.8333 64.8333C58.0435 64.8333 60.1631 63.9553 61.7259 62.3925C63.2887 60.8297 64.1667 58.7101 64.1667 56.5C64.1667 54.2899 63.2887 52.1702 61.7259 50.6074C60.1631 49.0446 58.0435 48.1667 55.8333 48.1667C53.6232 48.1667 51.5036 49.0446 49.9408 50.6074C48.378 52.1702 47.5 54.2899 47.5 56.5Z" stroke="black" stroke-width="8.33333" stroke-linecap="round" stroke-linejoin="round"/>
</svg>
