<svg width="100" height="100" viewBox="0 0 100 100" fill="none" xmlns="http://www.w3.org/2000/svg">
<path d="M16.9046 6.13281C11.5199 11.8438 8.86751 19.3555 9.18001 26.5625C9.5472 34.9805 13.848 42.9297 22.6566 47.3242L23.6331 47.8125V48.9062C23.6331 57.6953 28.1449 68.457 33.887 77.2656C36.7386 81.6602 39.9027 85.5859 42.8714 88.5547C45.5863 91.25 48.1644 93.0859 50.0003 93.8672C51.8363 93.0859 54.3949 91.25 57.1097 88.5352C60.0784 85.5664 63.2425 81.6406 66.1136 77.2461C71.8363 68.4375 76.3675 57.6953 76.3675 48.9062V47.8125L77.3441 47.3242C86.1527 42.9297 90.4495 34.9805 90.8206 26.5625C91.1331 19.3555 88.4769 11.8438 83.1058 6.13281C83.2816 11.709 83.6722 16.0742 82.9886 19.9219C82.1097 24.6875 79.18 28.4766 72.6566 31.7383L71.6995 32.207L70.8206 31.5625C70.4105 31.25 70.0003 30.9766 69.5902 30.6836C68.9456 32.0508 68.0472 33.3398 66.8753 34.5313C64.6878 36.6992 61.5238 36.6602 59.1214 35.7031C56.7191 34.7266 54.4925 32.8906 54.4925 30.1562V29.4336L55.0003 28.9062C56.1722 27.7344 57.0902 26.7188 57.8519 25.7422C52.7152 24.6289 47.305 24.6289 42.1488 25.7422C42.9105 26.7188 43.8284 27.7344 45.0003 28.9062L45.5081 29.4336V30.1562C45.5081 32.8906 43.2816 34.7266 40.8792 35.7031C38.4769 36.6602 35.3128 36.6992 33.1253 34.5313C31.9534 33.3398 31.055 32.0508 30.4105 30.6836C30.0003 30.957 29.5902 31.25 29.18 31.5625L28.3011 32.207L27.3441 31.7383C20.8206 28.4766 17.887 24.6875 17.0218 19.9219C16.3226 16.0742 16.721 11.709 16.9046 6.13281ZM34.1214 16.4277C33.3988 18.4102 32.8128 20.4883 32.6175 22.5195C32.2464 26.0742 32.9105 29.3359 35.6253 32.0313C36.5628 32.9883 38.0863 33.0273 39.5902 32.4219C40.6839 31.9922 41.4652 31.1914 41.7972 30.625C39.0433 27.7539 37.4222 25.332 36.2699 22.6367C35.4886 20.8203 34.8441 18.75 34.1214 16.4277ZM65.8792 16.4277C65.1566 18.7441 64.512 20.8203 63.7308 22.6367C62.5784 25.332 60.9574 27.7539 58.2034 30.625C58.5355 31.1914 59.3167 31.9922 60.4105 32.4219C61.9144 33.0273 63.4378 32.9883 64.3753 32.0313C67.0902 29.3359 67.7542 26.0742 67.3831 22.5195C67.1878 20.4883 66.6019 18.4102 65.8792 16.4277ZM30.7034 37.6172L32.8324 41.875C35.0003 46.2109 38.9456 50.7227 43.2425 53.9258L38.9847 43.3008L42.2659 42.0117L48.262 57.0117L48.6331 57.1875V57.3633H51.3675V57.1875L51.7386 57.0117L57.7347 42.0117L61.0159 43.3008L56.7581 53.9258C61.055 50.7227 65.0003 46.2109 67.1683 41.875L69.2972 37.6172L73.6331 54.9414V55.1562C73.6331 56.3672 73.1253 57.5195 72.4027 58.3594C71.6605 59.2188 70.723 59.8242 69.6878 60.3125C67.637 61.2891 65.137 61.7773 62.637 61.9922C62.2269 62.0312 61.8363 62.0508 61.4456 62.0703L58.1253 68.6914C60.0199 67.9883 62.2464 67.1094 64.9808 66.0156L67.3831 65.0586V67.6562C67.3831 71.6602 64.7269 75.7227 61.4066 79.0625C58.0667 82.3828 54.0042 85.0391 50.0003 85.0391C45.9964 85.0391 41.9339 82.3828 38.5941 79.0625C35.2738 75.7227 32.6175 71.6602 32.6175 67.6562V65.0586L35.0199 66.0156C37.7542 67.1094 39.9808 67.9883 41.8753 68.6914L38.555 62.0703C38.1644 62.0508 37.7738 62.0312 37.3636 61.9922C34.8636 61.7773 32.3636 61.2891 30.3128 60.3125C29.2777 59.8242 28.3402 59.2188 27.598 58.3594C26.8753 57.5195 26.3675 56.3672 26.3675 55.1562V54.9414L30.7034 37.6172ZM31.9339 47.1875L29.9027 55.293C29.9222 55.5469 30.0003 55.7812 30.2542 56.0547C30.5472 56.4062 31.0745 56.7969 31.7972 57.1289C33.262 57.8125 35.4495 58.3008 37.637 58.4766C39.7464 58.6523 41.8363 58.5742 43.3597 58.3008C38.9652 55.5273 34.8831 51.543 31.9339 47.1875ZM68.0667 47.1875C65.1175 51.543 61.0355 55.5273 56.6409 58.3008C58.1644 58.5742 60.2542 58.6523 62.3636 58.4766C64.5511 58.3008 66.7386 57.8125 68.2034 57.1289C68.9261 56.7969 69.4534 56.4062 69.7464 56.0547C70.0003 55.7812 70.0784 55.5469 70.098 55.293L68.0667 47.1875ZM47.2855 60.8789L42.9886 63.0273L50.0003 77.0703L57.012 63.0273L52.7152 60.8789H47.2855ZM36.8753 70.5273C37.7152 72.4805 39.2191 74.6875 41.0941 76.5625C43.3011 78.7695 45.9769 80.4883 48.1253 81.1719L44.1019 73.1445C42.0316 72.5391 39.7074 71.6602 36.8753 70.5273ZM63.1253 70.5273C60.2933 71.6602 57.9691 72.5391 55.8988 73.1445L51.8753 81.1719C54.0238 80.4883 56.6995 78.7695 58.9066 76.5625C60.7816 74.6875 62.2855 72.4805 63.1253 70.5273Z" fill="black"/>
</svg>
