<svg width="49" height="37" viewBox="0 0 49 37" fill="none" xmlns="http://www.w3.org/2000/svg">
<path d="M1.58325 35.6875H17.068C17.9712 35.6876 18.8655 35.5098 19.6999 35.1641C20.5343 34.8185 21.2924 34.3118 21.931 33.6731L29.0833 26.5208M8.45825 15.0625H1.58325M16.4791 28.8125L21.0624 24.2292C21.3634 23.9282 21.6021 23.5709 21.765 23.1777C21.9278 22.7845 22.0117 22.3631 22.0117 21.9375C22.0117 21.5119 21.9278 21.0905 21.765 20.6973C21.6021 20.3041 21.3634 19.9468 21.0624 19.6458C20.7615 19.3449 20.4042 19.1062 20.011 18.9433C19.6178 18.7804 19.1964 18.6966 18.7708 18.6966C18.3452 18.6966 17.9237 18.7804 17.5305 18.9433C17.1373 19.1062 16.78 19.3449 16.4791 19.6458L13.0416 23.0833C11.0708 21.1125 7.94721 20.8902 5.71513 22.5631L5.02075 23.0833" stroke="black" stroke-width="1.5" stroke-linecap="round" stroke-linejoin="round"/>
<path d="M8.45825 20.7918V10.4793C8.45825 6.15725 8.45825 3.9985 9.80117 2.65558C11.1441 1.31266 13.3028 1.31266 17.6249 1.31266H38.2499C42.572 1.31266 44.7307 1.31266 46.0737 2.65558C47.4166 3.9985 47.4166 6.15725 47.4166 10.4793V17.3543C47.4166 21.6764 47.4166 23.8352 46.0737 25.1781C44.7307 26.521 42.572 26.521 38.2499 26.521H18.7708" stroke="black" stroke-width="1.5" stroke-linecap="round" stroke-linejoin="round"/>
<path d="M31.9478 13.9168C31.9478 12.8532 31.5253 11.8331 30.7732 11.081C30.0211 10.3289 29.001 9.90641 27.9374 9.90641C26.8738 9.90641 25.8537 10.3289 25.1016 11.081C24.3495 11.8331 23.927 12.8532 23.927 13.9168C23.927 14.9805 24.3495 16.0005 25.1016 16.7526C25.8537 17.5047 26.8738 17.9272 27.9374 17.9272C29.001 17.9272 30.0211 17.5047 30.7732 16.7526C31.5253 16.0005 31.9478 14.9805 31.9478 13.9168Z" stroke="black" stroke-width="1.5" stroke-linecap="round" stroke-linejoin="round"/>
</svg>
