<svg width="42" height="42" viewBox="0 0 42 42" fill="none" xmlns="http://www.w3.org/2000/svg">
<path d="M3.5 34.125H15.3247C16.0144 34.1251 16.6974 33.9893 17.3345 33.7253C17.9717 33.4614 18.5506 33.0745 19.0382 32.5867L24.5 27.125M8.75 18.375H3.5M14.875 28.875L18.375 25.375C18.6048 25.1452 18.7871 24.8724 18.9115 24.5721C19.0359 24.2718 19.0999 23.95 19.0999 23.625C19.0999 23.3 19.0359 22.9782 18.9115 22.6779C18.7871 22.3776 18.6048 22.1048 18.375 21.875C18.1452 21.6452 17.8724 21.4629 17.5721 21.3385C17.2718 21.2141 16.95 21.1501 16.625 21.1501C16.3 21.1501 15.9782 21.2141 15.6779 21.3385C15.3776 21.4629 15.1048 21.6452 14.875 21.875L12.25 24.5C10.745 22.995 8.35975 22.8252 6.65525 24.1027L6.125 24.5" stroke="black" stroke-width="1.5" stroke-linecap="round" stroke-linejoin="round"/>
<path d="M8.75 22.75V14.875C8.75 11.5745 8.75 9.926 9.7755 8.9005C10.801 7.875 12.4495 7.875 15.75 7.875H31.5C34.8005 7.875 36.449 7.875 37.4745 8.9005C38.5 9.926 38.5 11.5745 38.5 14.875V20.125C38.5 23.4255 38.5 25.074 37.4745 26.0995C36.449 27.125 34.8005 27.125 31.5 27.125H16.625" stroke="black" stroke-width="1.5" stroke-linecap="round" stroke-linejoin="round"/>
<path d="M26.6875 17.5C26.6875 16.6878 26.3648 15.9088 25.7905 15.3345C25.2162 14.7602 24.4372 14.4375 23.625 14.4375C22.8128 14.4375 22.0338 14.7602 21.4595 15.3345C20.8852 15.9088 20.5625 16.6878 20.5625 17.5C20.5625 18.3122 20.8852 19.0912 21.4595 19.6655C22.0338 20.2398 22.8128 20.5625 23.625 20.5625C24.4372 20.5625 25.2162 20.2398 25.7905 19.6655C26.3648 19.0912 26.6875 18.3122 26.6875 17.5Z" stroke="black" stroke-width="1.5" stroke-linecap="round" stroke-linejoin="round"/>
</svg>
