<svg width="253" height="174" viewBox="0 0 253 174" fill="none" xmlns="http://www.w3.org/2000/svg">
<path d="M94.4698 70.4908C94.4746 69.5904 94.5035 68.6924 94.5687 67.7969C94.6024 67.3539 94.641 66.911 94.6916 66.468C94.7158 66.2489 94.7423 66.0274 94.7712 65.8084C94.6531 66.6774 94.8146 65.5893 94.8315 65.4954C95.1257 63.7284 95.5549 61.9854 96.1096 60.2834C96.358 59.5178 96.6401 58.7667 96.9343 58.018C97.1947 57.3536 96.9849 57.8928 96.9271 58.0228C97.0115 57.8278 97.0983 57.6328 97.1875 57.4402C97.407 56.9563 97.6385 56.4773 97.8796 56.0054C98.673 54.4526 99.5773 52.9576 100.588 51.5349C100.711 51.3639 100.834 51.193 100.957 51.0221C101.019 50.9354 101.422 50.401 101.14 50.7693C100.86 51.1376 101.268 50.6104 101.335 50.5262C101.468 50.3624 101.6 50.1987 101.736 50.0374C102.307 49.3513 102.905 48.6869 103.527 48.0441C104.111 47.4399 104.718 46.8549 105.343 46.2939C105.657 46.0123 105.972 45.7378 106.296 45.4658C106.491 45.3021 107.646 44.4065 107.021 44.8711C108.379 43.8624 109.79 42.9332 111.27 42.1147C112.013 41.703 112.77 41.3178 113.542 40.9591C113.718 40.8773 114.847 40.3934 114.114 40.6943C114.608 40.4921 115.107 40.2971 115.611 40.1165C117.292 39.5099 119.016 39.0308 120.767 38.6817C121.196 38.595 121.628 38.518 122.062 38.4482C122.173 38.4289 122.862 38.3206 122.382 38.3928C121.9 38.465 122.595 38.3663 122.708 38.3543C123.651 38.246 124.599 38.1737 125.546 38.1376C127.398 38.0702 129.255 38.14 131.097 38.3543C131.211 38.3663 131.905 38.4675 131.423 38.3928C130.943 38.3206 131.633 38.4289 131.744 38.4482C132.178 38.518 132.607 38.595 133.039 38.6817C133.945 38.8623 134.845 39.0765 135.735 39.3269C136.564 39.5604 137.387 39.8228 138.197 40.1165C138.599 40.261 139 40.4174 139.398 40.5739C140.063 40.8339 139.523 40.6245 139.393 40.5667C139.685 40.6943 139.979 40.8243 140.268 40.9591C141.855 41.6958 143.386 42.548 144.848 43.5086C145.508 43.9419 146.152 44.4017 146.789 44.8736C146.174 44.4161 147.095 45.1215 147.273 45.2684C147.679 45.603 148.079 45.9449 148.47 46.2987C149.76 47.4591 150.965 48.711 152.077 50.0423C152.212 50.2036 152.345 50.3673 152.477 50.531C152.545 50.6152 152.952 51.1424 152.673 50.7741C152.391 50.4058 152.793 50.9402 152.856 51.0269C152.979 51.1978 153.104 51.3663 153.225 51.5397C153.743 52.2715 154.235 53.0226 154.698 53.7906C155.135 54.5152 155.547 55.2567 155.933 56.0102C156.126 56.3882 156.312 56.771 156.492 57.1561C156.582 57.3487 156.669 57.5437 156.758 57.7363C157.197 58.6993 156.493 57.0358 156.881 58.0228C157.51 59.6261 158.053 61.2608 158.458 62.9363C158.663 63.7837 158.839 64.6408 158.984 65.5002C159.02 65.7169 159.049 65.936 159.087 66.1502C158.959 65.4184 159.068 65.9865 159.085 66.143C159.148 66.6943 159.205 67.2456 159.246 67.8017C159.384 69.6506 159.379 71.5091 159.234 73.358C159.201 73.801 159.157 74.2439 159.107 74.6845C159.094 74.7976 158.993 75.491 159.068 75.0095C159.14 74.5304 159.032 75.2189 159.012 75.3297C158.863 76.2445 158.68 77.1545 158.46 78.0573C158.038 79.793 157.44 81.4469 156.823 83.1176C156.625 83.6497 157.074 82.6 156.825 83.1104C156.731 83.3006 156.652 83.5004 156.562 83.693C156.384 84.0782 156.201 84.461 156.008 84.8413C155.603 85.6454 155.166 86.4326 154.703 87.203C154.267 87.9252 153.806 88.633 153.321 89.3239C153.08 89.6682 152.829 90.0076 152.576 90.3447C153.042 89.7211 152.142 90.8767 151.981 91.0693C150.864 92.3958 149.651 93.6428 148.356 94.7984C148.043 95.0776 147.724 95.3521 147.399 95.6217C147.237 95.7565 147.073 95.8889 146.909 96.0213C146.825 96.0887 146.297 96.4956 146.666 96.2163C146.97 95.9852 146.164 96.5799 146.029 96.6786C145.6 96.9843 145.163 97.2828 144.722 97.5693C143.256 98.5226 141.72 99.3676 140.131 100.097C139.938 100.186 139.738 100.266 139.547 100.359C139.038 100.607 140.087 100.16 139.554 100.357C139.152 100.504 138.759 100.672 138.356 100.819C137.497 101.135 136.624 101.416 135.744 101.662C134.908 101.898 134.061 102.102 133.21 102.276C132.781 102.362 132.349 102.444 131.917 102.517C131.7 102.553 131.481 102.582 131.266 102.62C132.125 102.471 131.047 102.644 130.943 102.656C129.156 102.854 127.355 102.919 125.558 102.854C124.666 102.82 123.774 102.755 122.884 102.656C122.665 102.632 122.443 102.606 122.223 102.577C122.968 102.678 122.382 102.596 122.235 102.569C121.695 102.476 121.155 102.387 120.617 102.278C118.869 101.922 117.147 101.433 115.471 100.819C115.068 100.672 114.675 100.504 114.273 100.357C113.74 100.16 114.791 100.607 114.28 100.359C114.089 100.266 113.889 100.186 113.696 100.097C112.876 99.7191 112.069 99.3122 111.28 98.8765C110.54 98.4672 109.814 98.0315 109.105 97.5693C108.75 97.3406 108.401 97.1022 108.056 96.8615C107.882 96.7411 107.711 96.6184 107.54 96.4932C107.465 96.4402 106.771 95.9202 107.159 96.2163C107.528 96.4956 107 96.0887 106.915 96.0213C106.751 95.8889 106.587 95.7565 106.426 95.6217C106.103 95.3521 105.784 95.0776 105.468 94.7984C104.8 94.2037 104.157 93.585 103.534 92.9423C102.948 92.338 102.387 91.7121 101.844 91.0693C101.574 90.7467 101.306 90.4217 101.048 90.0895C101.528 90.7034 100.648 89.5285 100.503 89.3239C99.5001 87.8963 98.6006 86.3965 97.8169 84.8389C97.6264 84.4586 97.4407 84.0758 97.2623 83.6906C97.173 83.498 97.0935 83.2982 96.9994 83.108C96.751 82.6 97.1996 83.6473 97.0018 83.1152C96.6859 82.2606 96.3459 81.418 96.0662 80.5489C95.5164 78.8445 95.0992 77.0967 94.8122 75.3273C94.7929 75.2165 94.6844 74.528 94.7568 75.0071C94.8291 75.4886 94.7302 74.7952 94.7182 74.6821C94.6675 74.2415 94.6241 73.7986 94.5904 73.3556C94.5084 72.3999 94.4746 71.4465 94.4698 70.4908C94.4601 68.5384 92.7577 66.6678 90.732 66.7593C88.7136 66.8484 86.9846 68.3987 86.9943 70.4908C87.0714 87.1958 97.6722 102.153 113.323 107.952C128.739 113.665 146.999 108.754 157.459 96.0984C162.798 89.6417 165.994 81.8682 166.688 73.5169C167.368 65.3365 165.335 56.8913 161.067 49.881C156.97 43.1523 150.816 37.5478 143.603 34.3123C135.785 30.8071 127.198 29.8008 118.782 31.4811C102.946 34.6421 89.9893 48.0345 87.5465 63.998C87.2161 66.1526 87.0063 68.3097 86.9967 70.4884C86.987 72.4408 88.7233 74.3089 90.7344 74.2198C92.7649 74.1308 94.4601 72.5828 94.4698 70.4908Z" fill="#0C0B0B"/>
<path d="M213.958 76.0278C233.935 76.0278 250.129 59.8603 250.129 39.9167C250.129 19.973 233.935 3.80554 213.958 3.80554C193.98 3.80554 177.786 19.973 177.786 39.9167C177.786 59.8603 193.98 76.0278 213.958 76.0278Z" fill="#E0AA22"/>
<path d="M180.559 39.9167C180.622 26.1198 189.414 13.3004 202.409 8.61074C215.785 3.78389 230.71 7.87408 239.808 18.782C248.678 29.4156 249.758 45.1961 242.582 57.108C235.403 69.0198 221.016 75.3994 207.406 72.6237C193.711 69.8311 183.171 58.8076 180.93 45.0035C180.699 43.588 180.566 41.6067 180.559 39.9167C180.542 36.3537 174.996 36.3465 175.013 39.9167C175.087 56.1667 185.389 70.8013 200.632 76.4515C215.759 82.0583 233.568 77.2604 243.831 64.8454C254.289 52.1944 255.871 33.8909 247.286 19.7956C238.774 5.81574 222.128 -1.36074 206.091 1.83871C190.547 4.93945 177.926 18.0189 175.529 33.6815C175.213 35.7494 175.022 37.8246 175.013 39.9167C174.996 43.4796 180.542 43.4844 180.559 39.9167Z" fill="#0C0B0B"/>
<path d="M213.958 65.9166C228.341 65.9166 240.001 54.276 240.001 39.9166C240.001 25.5572 228.341 13.9166 213.958 13.9166C199.574 13.9166 187.914 25.5572 187.914 39.9166C187.914 54.276 199.574 65.9166 213.958 65.9166Z" fill="#F7BF21"/>
<path d="M190.687 39.9167C190.75 30.2846 196.894 21.3002 205.976 18.0791C215.342 14.7568 225.636 17.6096 232.005 25.2291C238.176 32.6126 238.885 43.6698 233.862 51.9585C228.868 60.1966 218.831 64.6504 209.407 62.71C198.534 60.4711 190.757 50.9017 190.687 39.9167C190.665 36.3561 185.119 36.3465 185.141 39.9167C185.218 51.9994 192.86 62.8039 204.201 66.9855C215.322 71.0854 228.491 67.5296 236.027 58.3983C243.756 49.0335 244.988 35.54 238.651 25.0798C232.374 14.7231 220.116 9.43165 208.252 11.7187C196.764 13.9335 187.328 23.6281 185.543 35.1909C185.302 36.7605 185.15 38.3302 185.141 39.9167C185.119 43.4796 190.665 43.4844 190.687 39.9167Z" fill="#0C0B0B"/>
<path d="M223.676 25.1954C218.952 21.7576 211.838 19.3189 206.352 22.5328C201.608 25.3109 201.382 31.4691 203.239 36.0985C204.29 38.7154 205.956 41.2552 208.537 42.5841C211.146 43.9274 213.95 43.6626 216.723 43.0824C217.281 42.9668 217.838 42.8368 218.402 42.7454C217.823 42.8392 218.643 42.7237 218.706 42.7213C218.949 42.7092 219.195 42.7068 219.439 42.7285C218.725 42.6659 219.347 42.7598 219.386 42.7526C218.959 42.832 219.304 42.5142 219.55 42.8657C219.12 42.2518 219.875 43.5326 219.345 42.69C219.419 42.8103 219.825 43.612 219.562 42.9789C219.745 43.4242 219.861 43.8985 219.948 44.3728C220.049 44.9168 219.964 44.5268 219.955 44.4137C219.979 44.6857 219.996 44.9578 220.001 45.2322C220.025 46.5442 219.931 47.1846 219.48 48.5689C218.824 50.5887 217.295 52.4833 215.175 53.0178C214.187 53.2657 213.29 53.22 212.127 52.8204C211.221 52.5074 210.034 51.7081 209.291 50.7452C208.38 49.5631 206.906 48.93 205.498 49.7509C204.333 50.4322 203.583 52.3461 204.502 53.5378C206.4 55.9981 208.865 57.9433 212.002 58.4922C214.973 59.0122 217.98 58.355 220.391 56.5253C224.568 53.3524 226.664 46.9968 225.065 41.9485C224.228 39.3076 222.292 37.3889 219.439 37.1939C218.325 37.1168 217.191 37.3431 216.104 37.5646C214.712 37.8463 213.914 38.0894 212.689 38.0653C212.077 38.0533 212.178 38.0822 211.587 37.8872C210.95 37.6778 211.65 37.9811 211.035 37.6416C211.04 37.6441 210.157 36.9916 210.562 37.3359C209.588 36.5078 209.132 35.7928 208.558 34.5385C207.775 32.822 207.437 30.4002 207.912 28.8161C207.936 28.7318 208.271 28.012 208.004 28.532C208.112 28.3226 208.23 28.1179 208.368 27.9229C208.013 28.4285 208.464 27.8411 208.541 27.7689C208.655 27.6557 208.775 27.5498 208.898 27.4487C208.66 27.6316 208.669 27.6316 208.934 27.4487C209.154 27.3163 209.371 27.1887 209.602 27.0755C209.894 26.9383 209.918 26.9287 209.672 27.0466C209.844 26.9841 210.02 26.9287 210.196 26.8781C210.996 26.647 211.158 26.6422 211.792 26.6157C215.04 26.4905 218.18 28.0168 220.876 29.9813C222.087 30.8624 223.968 30.1859 224.669 28.987C225.492 27.5811 224.889 26.0789 223.676 25.1954Z" fill="#0C0B0B"/>
<path d="M219.986 60.5C219.986 48.5424 219.986 36.5848 219.986 24.6296C219.986 22.9444 219.986 21.2592 219.986 19.5741C219.986 17.7155 217.092 17.7131 217.092 19.5741C217.092 31.5316 217.092 43.4892 217.092 55.4444C217.092 57.1296 217.092 58.8148 217.092 60.5C217.092 62.3585 219.986 62.3609 219.986 60.5Z" fill="#0C0B0B"/>
<path d="M212.028 60.5C212.028 48.5424 212.028 36.5848 212.028 24.6296C212.028 22.9444 212.028 21.2592 212.028 19.5741C212.028 17.7155 209.135 17.7131 209.135 19.5741C209.135 31.5316 209.135 43.4892 209.135 55.4444C209.135 57.1296 209.135 58.8148 209.135 60.5C209.135 62.3585 212.028 62.3609 212.028 60.5Z" fill="#0C0B0B"/>
<path d="M39.8503 75.787C59.8274 75.787 76.0221 59.6195 76.0221 39.6759C76.0221 19.7323 59.8274 3.56482 39.8503 3.56482C19.8731 3.56482 3.67839 19.7323 3.67839 39.6759C3.67839 59.6195 19.8731 75.787 39.8503 75.787Z" fill="#E0AA22"/>
<path d="M6.45157 39.6759C6.51426 25.8791 15.3064 13.0597 28.3018 8.37002C41.6781 3.54317 56.6027 7.63335 65.7011 18.5413C74.5704 29.1748 75.6508 44.9554 68.4743 56.8672C61.2954 68.7791 46.9086 75.1587 33.2983 72.383C19.6037 69.5904 9.06318 58.5669 6.82293 44.7628C6.59143 43.3472 6.4588 41.3659 6.45157 39.6759C6.43469 36.113 0.888333 36.1058 0.905213 39.6759C0.979968 55.9259 11.2817 70.5606 26.5245 76.2108C41.6516 81.8176 59.4602 77.0196 69.7234 64.6046C80.1819 51.9537 81.7638 33.6502 73.179 19.5548C64.6666 5.57502 48.0203 -1.60146 31.9841 1.59798C16.4398 4.69872 3.81826 17.7782 1.42127 33.4408C1.10537 35.5087 0.914859 37.5839 0.905213 39.6759C0.888333 43.2389 6.43469 43.2437 6.45157 39.6759Z" fill="#0C0B0B"/>
<path d="M39.8503 65.6759C54.2338 65.6759 65.894 54.0353 65.894 39.6759C65.894 25.3165 54.2338 13.6759 39.8503 13.6759C25.4667 13.6759 13.8065 25.3165 13.8065 39.6759C13.8065 54.0353 25.4667 65.6759 39.8503 65.6759Z" fill="#F7BF21"/>
<path d="M16.5797 39.6759C16.6424 30.0439 22.7868 21.0594 31.8683 17.8383C41.2344 14.5161 51.529 17.3689 57.8976 24.9883C64.0685 32.3719 64.7775 43.4291 59.7544 51.7178C54.7603 59.9559 44.7238 64.4096 35.2998 62.4693C24.4266 60.2304 16.6496 50.6609 16.5797 39.6759C16.558 36.1154 11.0116 36.1057 11.0333 39.6759C11.1105 51.7587 18.7524 62.5632 30.0935 66.7448C41.2151 70.8446 54.3841 67.2889 61.9199 58.1576C69.6486 48.7928 70.8809 35.2993 64.5436 24.8391C58.2666 14.4824 46.0091 9.19093 34.1448 11.478C22.6566 13.6928 13.2205 23.3874 11.436 34.9502C11.1949 36.5198 11.043 38.0894 11.0333 39.6759C11.0116 43.2389 16.558 43.2437 16.5797 39.6759Z" fill="#0C0B0B"/>
<path d="M49.5684 24.9546C44.8444 21.5169 37.7306 19.0781 32.2445 22.292C27.5012 25.0702 27.2745 31.2283 29.1313 35.8578C30.1827 38.4746 31.849 41.0144 34.4293 42.3433C37.0385 43.6867 39.843 43.4218 42.6162 42.8417C43.1732 42.7261 43.7303 42.5961 44.2946 42.5046C43.7158 42.5985 44.5357 42.483 44.5984 42.4806C44.842 42.4685 45.0879 42.4661 45.3315 42.4878C44.6177 42.4252 45.2399 42.5191 45.2785 42.5118C44.8516 42.5913 45.1965 42.2735 45.4424 42.625C45.0132 42.0111 45.768 43.2918 45.2375 42.4493C45.3122 42.5696 45.7173 43.3713 45.4545 42.7381C45.6378 43.1835 45.7535 43.6578 45.8403 44.132C45.9416 44.6761 45.8572 44.2861 45.8476 44.173C45.8717 44.445 45.8885 44.717 45.8934 44.9915C45.9175 46.3035 45.8234 46.9439 45.3725 48.3281C44.7166 50.348 43.1877 52.2426 41.068 52.777C40.0793 53.025 39.1823 52.9793 38.02 52.5796C37.1132 52.2667 35.9268 51.4674 35.1841 50.5044C34.2726 49.3224 32.7991 48.6893 31.3909 49.5102C30.2261 50.1915 29.4762 52.1054 30.3949 53.297C32.2927 55.7574 34.7573 57.7026 37.8946 58.2515C40.8655 58.7715 43.8726 58.1143 46.284 56.2846C50.4607 53.1117 52.5562 46.7561 50.9574 41.7078C50.1207 39.0669 48.1843 37.1481 45.3315 36.9531C44.2174 36.8761 43.084 37.1024 41.9965 37.3239C40.605 37.6056 39.8068 37.8487 38.5818 37.8246C37.9693 37.8126 38.0706 37.8415 37.4798 37.6465C36.8432 37.437 37.5425 37.7404 36.9276 37.4009C36.9324 37.4033 36.0498 36.7509 36.4549 37.0952C35.4807 36.267 35.0249 35.552 34.451 34.2978C33.6673 32.5813 33.3297 30.1594 33.8047 28.5754C33.8288 28.4911 34.164 27.7713 33.8964 28.2913C34.0049 28.0818 34.123 27.8772 34.2605 27.6822C33.906 28.1878 34.357 27.6004 34.4341 27.5281C34.5475 27.415 34.668 27.3091 34.791 27.208C34.5523 27.3909 34.5619 27.3909 34.8272 27.208C35.0466 27.0756 35.2637 26.948 35.4952 26.8348C35.787 26.6976 35.8111 26.688 35.5651 26.8059C35.7363 26.7433 35.9124 26.688 36.0884 26.6374C36.889 26.4063 37.0506 26.4015 37.6848 26.375C40.933 26.2498 44.0727 27.7761 46.7687 29.7406C47.9793 30.6217 49.8602 29.9452 50.562 28.7463C51.3843 27.3404 50.7814 25.8381 49.5684 24.9546Z" fill="#0C0B0B"/>
<path d="M45.8789 60.2593C45.8789 48.3017 45.8789 36.3441 45.8789 24.3889C45.8789 22.7037 45.8789 21.0185 45.8789 19.3333C45.8789 17.4748 42.9852 17.4724 42.9852 19.3333C42.9852 31.2909 42.9852 43.2485 42.9852 55.2037C42.9852 56.8889 42.9852 58.5741 42.9852 60.2593C42.9852 62.1178 45.8789 62.1202 45.8789 60.2593Z" fill="#0C0B0B"/>
<path d="M37.9211 60.2593C37.9211 48.3017 37.9211 36.3441 37.9211 24.3889C37.9211 22.7037 37.9211 21.0185 37.9211 19.3333C37.9211 17.4748 35.0273 17.4724 35.0273 19.3333C35.0273 31.2909 35.0273 43.2485 35.0273 55.2037C35.0273 56.8889 35.0273 58.5741 35.0273 60.2593C35.0273 62.1178 37.9211 62.1202 37.9211 60.2593Z" fill="#0C0B0B"/>
<path d="M116.744 84.485C119.301 87.5208 122.72 89.4635 126.764 89.5285C131.078 89.5959 135.04 87.41 137.5 83.9241C138.363 82.7011 137.719 80.845 136.504 80.1372C135.117 79.3283 133.574 79.9037 132.711 81.1315C131.283 83.1537 128.821 84.0902 126.47 83.9843C124.208 83.8832 122.404 82.6313 120.668 80.573C119.703 79.427 117.74 79.5787 116.747 80.573C115.609 81.7045 115.777 83.3367 116.744 84.485Z" fill="#0C0B0B"/>
<path d="M98.4583 170.75C99.3433 164.57 100.226 158.392 101.111 152.213C101.299 150.893 101.005 149.345 99.6713 148.679C91.3542 144.521 83.8642 139.579 77.2472 133.365C74.4692 130.755 71.8672 127.956 69.4967 124.973C69.352 124.79 69.2074 124.609 69.0651 124.426C69.1398 124.523 69.4075 124.881 69.0506 124.402C68.7781 124.039 68.5032 123.675 68.2355 123.309C67.7123 122.594 67.201 121.867 66.7043 121.131C65.8048 119.799 64.9535 118.437 64.1553 117.043C63.3885 115.707 62.6723 114.344 62.0092 112.955C61.7029 112.315 61.4159 111.665 61.129 111.017C60.9023 110.507 61.1579 111.084 61.1893 111.161C61.1217 110.995 61.0518 110.829 60.9843 110.663C60.8372 110.302 60.6949 109.939 60.5575 109.575C59.6724 107.245 58.9514 104.844 58.4788 102.396C58.3823 101.898 58.31 101.397 58.2232 100.896C58.1581 100.526 58.3124 101.715 58.2183 100.846C58.187 100.562 58.1556 100.275 58.1291 99.9911C58.0471 99.0594 58.011 98.123 58.0423 97.1889C58.0544 96.7796 58.0881 96.3728 58.1219 95.9659C58.1846 95.21 58.2015 96.1489 58.0833 96.1946C58.1243 96.1802 58.1822 95.5856 58.1991 95.5085C58.2618 95.1883 58.3365 94.8706 58.4257 94.5576C58.474 94.3939 58.5294 94.235 58.5801 94.0737C58.7416 93.5537 58.9418 93.7776 58.4739 94.2807C58.6331 94.1098 58.7465 93.7343 58.8622 93.5224C58.9201 93.4141 59.0189 93.3178 59.0696 93.207C59.1371 93.0554 58.4016 93.898 58.9032 93.4333C58.9828 93.3611 59.0768 93.272 59.1443 93.1878C59.5229 92.7159 58.6934 93.4574 58.8526 93.3948C58.9466 93.3587 59.0358 93.2696 59.125 93.2191C59.6604 92.9254 59.1588 93.4141 58.7923 93.337C58.855 93.3515 59.3565 93.2118 59.412 93.1733C59.0768 93.4213 58.4402 93.2793 59.0189 93.248C59.1419 93.2408 59.2818 93.2817 59.4024 93.2648C59.6146 93.2311 58.4161 93.0217 59.0455 93.2287C59.1636 93.2672 59.2963 93.2985 59.4168 93.3274C60.3621 93.5465 58.7971 92.9109 59.5085 93.3587C59.7472 93.508 59.9908 93.6428 60.2247 93.8017C60.3525 93.8883 60.4755 93.9798 60.6009 94.0689C60.6756 94.1219 60.7456 94.1796 60.8203 94.2326C61.2303 94.5143 60.1523 93.7006 60.555 94.028C61.2495 94.5937 61.9489 95.1546 62.6434 95.7228C64.9053 97.5717 67.2179 99.3652 69.6269 101.021C73.0199 103.354 76.5864 105.427 80.2567 107.295C82.5837 108.477 84.9518 109.577 87.3488 110.61C89.0416 111.337 91.06 112.558 92.9241 112.63C96.4279 112.765 99.9607 112.63 103.467 112.63C113.602 112.63 123.74 112.63 133.875 112.63C134.088 112.63 134.3 112.63 134.512 112.63C138.546 112.63 138.554 106.371 134.512 106.371C125.271 106.371 116.031 106.371 106.79 106.371C102.394 106.371 98.0002 106.371 93.6041 106.371C93.3509 106.371 93.0519 106.414 92.8035 106.371C93.8259 106.551 92.0149 105.834 91.8726 105.774C91.2818 105.531 90.6959 105.283 90.1099 105.03C88.8125 104.466 87.5224 103.881 86.2443 103.275C82.1472 101.33 78.1563 99.1509 74.3606 96.6665C72.9596 95.7493 71.5875 94.7911 70.2467 93.792C69.9838 93.597 69.7234 93.3972 69.463 93.1998C69.3062 93.0795 68.8915 92.752 69.5184 93.2456C69.4123 93.1637 69.3062 93.0819 69.2001 92.9976C68.6672 92.5763 68.1343 92.1526 67.6061 91.7241C66.1327 90.5276 64.7003 89.2011 63.0871 88.1948C59.8533 86.175 55.9058 86.8443 53.7161 89.9859C51.7026 92.8748 51.5699 96.9313 51.9027 100.306C52.4549 105.88 54.2467 111.19 56.6605 116.227C63.6369 130.787 76.1065 142.376 89.8784 150.491C92.0511 151.77 94.2696 152.966 96.5244 154.093C96.0445 152.916 95.5646 151.736 95.0847 150.559C94.1997 156.739 93.3171 162.916 92.4321 169.096C92.1934 170.766 92.8445 172.459 94.6217 172.945C96.071 173.338 98.2172 172.432 98.4583 170.75Z" fill="#0C0B0B"/>
<path d="M161.639 169.084C160.754 162.904 159.871 156.726 158.986 150.547C158.506 151.724 158.026 152.904 157.546 154.081C172.799 146.454 186.749 135.127 195.312 120.199C198.163 115.228 200.499 109.782 201.606 104.141C202.356 100.309 202.836 95.8793 201.423 92.1261C200.109 88.6378 197.048 86.2352 193.185 87.2246C191.437 87.6724 190.06 88.8015 188.683 89.9041C187.894 90.5348 187.118 91.1848 186.332 91.8204C185.874 92.1911 185.413 92.5594 184.95 92.923C184.817 93.0265 184.685 93.1276 184.555 93.2311C185.16 92.752 184.832 93.0193 184.695 93.1228C184.345 93.3852 183.995 93.6524 183.643 93.9124C180.66 96.1224 177.528 98.1206 174.289 99.9333C172.174 101.118 170.016 102.223 167.826 103.263C166.548 103.869 165.258 104.454 163.961 105.018C163.375 105.271 162.789 105.521 162.198 105.762C161.94 105.868 160.319 106.525 161.267 106.359C160.358 106.518 159.278 106.359 158.361 106.359C156.056 106.359 153.751 106.359 151.445 106.359C141.04 106.359 130.634 106.359 120.227 106.359C120.005 106.359 119.78 106.359 119.556 106.359C115.522 106.359 115.515 112.618 119.556 112.618C128.491 112.618 137.425 112.618 146.357 112.618C150.91 112.618 155.463 112.618 160.018 112.618C160.397 112.618 160.78 112.637 161.159 112.618C163.069 112.519 165.186 111.26 166.922 110.511C171.366 108.593 175.709 106.433 179.864 103.946C184.707 101.048 189.262 97.6415 193.557 93.9846C192.775 94.6491 193.475 94.0448 193.839 93.7969C194.082 93.6307 194.338 93.4887 194.591 93.3346C195.235 92.9422 193.766 93.5441 194.606 93.3346C194.741 93.3009 194.888 93.2672 195.018 93.2239C195.628 93.0217 194.393 93.2287 194.661 93.26C194.784 93.2745 194.919 93.2359 195.044 93.2432C195.594 93.2745 195.066 93.4646 194.651 93.1685C194.712 93.2119 194.856 93.2046 194.934 93.2263C195.498 93.378 194.982 93.4983 194.654 93.0722C194.721 93.1613 195.1 93.3491 195.211 93.3924C195.329 93.4382 194.548 92.74 194.919 93.1854C194.996 93.2793 195.095 93.3804 195.187 93.4598C195.645 93.8691 194.888 92.9687 194.994 93.2046C195.04 93.3033 195.126 93.3876 195.177 93.4839C195.288 93.6885 195.739 94.6202 195.466 93.9919C195.196 93.3659 195.433 93.9148 195.481 94.0713C195.532 94.2326 195.587 94.3939 195.635 94.5552C195.737 94.9043 195.816 95.2606 195.884 95.6169C195.915 95.7878 195.929 95.9659 195.968 96.1345C195.925 95.9515 195.886 95.3328 195.937 95.9659C195.97 96.3969 196.007 96.8254 196.019 97.2563C196.045 98.1952 196.007 99.1341 195.922 100.068C195.901 100.302 195.874 100.535 195.85 100.769C195.835 100.901 195.814 101.034 195.802 101.166C195.765 101.585 195.939 100.299 195.835 100.899C195.739 101.455 195.657 102.013 195.546 102.569C195.319 103.708 195.04 104.837 194.717 105.954C194.343 107.245 193.909 108.521 193.426 109.775C193.325 110.04 193.221 110.304 193.115 110.567C193.048 110.733 192.975 110.899 192.91 111.065C192.744 111.503 193.229 110.353 192.93 111.022C192.623 111.706 192.324 112.389 192.001 113.063C190.622 115.945 189.004 118.711 187.207 121.352C186.756 122.014 186.296 122.666 185.823 123.312C185.555 123.678 185.28 124.041 185.008 124.405C184.943 124.491 184.646 124.872 184.994 124.429C184.822 124.648 184.649 124.867 184.475 125.086C183.305 126.554 182.078 127.977 180.802 129.354C174.841 135.789 168.391 140.768 160.872 145.178C158.752 146.42 156.587 147.586 154.387 148.683C153.034 149.36 152.757 150.891 152.948 152.217C153.833 158.397 154.715 164.575 155.6 170.754C155.839 172.43 157.973 173.347 159.456 172.94C161.25 172.44 161.877 170.764 161.639 169.084Z" fill="#0C0B0B"/>
</svg>
