<svg width="100" height="100" viewBox="0 0 100 100" fill="none" xmlns="http://www.w3.org/2000/svg">
<path fill-rule="evenodd" clip-rule="evenodd" d="M20.8333 62.5C24.1485 62.5 27.3279 61.183 29.6721 58.8388C32.0163 56.4946 33.3333 53.3152 33.3333 50C33.3333 46.6848 32.0163 43.5054 29.6721 41.1612C27.3279 38.817 24.1485 37.5 20.8333 37.5C17.518 37.5 14.3386 38.817 11.9944 41.1612C9.65021 43.5054 8.33325 46.6848 8.33325 50C8.33325 53.3152 9.65021 56.4946 11.9944 58.8388C14.3386 61.183 17.518 62.5 20.8333 62.5ZM20.8333 54.1667C21.9383 54.1667 22.9981 53.7277 23.7795 52.9463C24.5609 52.1649 24.9999 51.1051 24.9999 50C24.9999 48.8949 24.5609 47.8351 23.7795 47.0537C22.9981 46.2723 21.9383 45.8333 20.8333 45.8333C19.7282 45.8333 18.6684 46.2723 17.887 47.0537C17.1056 47.8351 16.6666 48.8949 16.6666 50C16.6666 51.1051 17.1056 52.1649 17.887 52.9463C18.6684 53.7277 19.7282 54.1667 20.8333 54.1667ZM49.9999 62.5C53.3151 62.5 56.4945 61.183 58.8388 58.8388C61.183 56.4946 62.4999 53.3152 62.4999 50C62.4999 46.6848 61.183 43.5054 58.8388 41.1612C56.4945 38.817 53.3151 37.5 49.9999 37.5C46.6847 37.5 43.5053 38.817 41.1611 41.1612C38.8169 43.5054 37.4999 46.6848 37.4999 50C37.4999 53.3152 38.8169 56.4946 41.1611 58.8388C43.5053 61.183 46.6847 62.5 49.9999 62.5ZM49.9999 54.1667C51.105 54.1667 52.1648 53.7277 52.9462 52.9463C53.7276 52.1649 54.1666 51.1051 54.1666 50C54.1666 48.8949 53.7276 47.8351 52.9462 47.0537C52.1648 46.2723 51.105 45.8333 49.9999 45.8333C48.8948 45.8333 47.835 46.2723 47.0536 47.0537C46.2722 47.8351 45.8333 48.8949 45.8333 50C45.8333 51.1051 46.2722 52.1649 47.0536 52.9463C47.835 53.7277 48.8948 54.1667 49.9999 54.1667ZM91.6666 50C91.6666 53.3152 90.3496 56.4946 88.0054 58.8388C85.6612 61.183 82.4818 62.5 79.1666 62.5C75.8514 62.5 72.672 61.183 70.3277 58.8388C67.9835 56.4946 66.6666 53.3152 66.6666 50C66.6666 46.6848 67.9835 43.5054 70.3277 41.1612C72.672 38.817 75.8514 37.5 79.1666 37.5C82.4818 37.5 85.6612 38.817 88.0054 41.1612C90.3496 43.5054 91.6666 46.6848 91.6666 50ZM83.3333 50C83.3333 51.1051 82.8943 52.1649 82.1129 52.9463C81.3315 53.7277 80.2717 54.1667 79.1666 54.1667C78.0615 54.1667 77.0017 53.7277 76.2203 52.9463C75.4389 52.1649 74.9999 51.1051 74.9999 50C74.9999 48.8949 75.4389 47.8351 76.2203 47.0537C77.0017 46.2723 78.0615 45.8333 79.1666 45.8333C80.2717 45.8333 81.3315 46.2723 82.1129 47.0537C82.8943 47.8351 83.3333 48.8949 83.3333 50Z" fill="black"/>
</svg>
