<svg width="28" height="31" viewBox="0 0 28 31" fill="none" xmlns="http://www.w3.org/2000/svg">
<path d="M8.75 3.44773C8.28587 3.44773 7.84075 3.62912 7.51256 3.95202C7.18437 4.27491 7 4.71284 7 5.16948C7 5.62612 7.18437 6.06405 7.51256 6.38694C7.84075 6.70983 8.28587 6.89123 8.75 6.89123C9.21413 6.89123 9.65925 6.70983 9.98744 6.38694C10.3156 6.06405 10.5 5.62612 10.5 5.16948C10.5 4.71284 10.3156 4.27491 9.98744 3.95202C9.65925 3.62912 9.21413 3.44773 8.75 3.44773ZM3.7975 3.44773C4.15905 2.43958 4.82954 1.5666 5.71655 0.949099C6.60356 0.331602 7.6634 0 8.75 0C9.8366 0 10.8964 0.331602 11.7835 0.949099C12.6705 1.5666 13.3409 2.43958 13.7025 3.44773H26.25C26.7141 3.44773 27.1593 3.62912 27.4874 3.95202C27.8156 4.27491 28 4.71284 28 5.16948C28 5.62612 27.8156 6.06405 27.4874 6.38694C27.1593 6.70983 26.7141 6.89123 26.25 6.89123H13.7025C13.3409 7.89938 12.6705 8.77236 11.7835 9.38986C10.8964 10.0074 9.8366 10.339 8.75 10.339C7.6634 10.339 6.60356 10.0074 5.71655 9.38986C4.82954 8.77236 4.15905 7.89938 3.7975 6.89123H1.75C1.28587 6.89123 0.840752 6.70983 0.512563 6.38694C0.184375 6.06405 0 5.62612 0 5.16948C0 4.71284 0.184375 4.27491 0.512563 3.95202C0.840752 3.62912 1.28587 3.44773 1.75 3.44773H3.7975ZM19.25 13.7782C18.7859 13.7782 18.3408 13.9596 18.0126 14.2825C17.6844 14.6054 17.5 15.0434 17.5 15.5C17.5 15.9566 17.6844 16.3946 18.0126 16.7175C18.3408 17.0404 18.7859 17.2218 19.25 17.2218C19.7141 17.2218 20.1592 17.0404 20.4874 16.7175C20.8156 16.3946 21 15.9566 21 15.5C21 15.0434 20.8156 14.6054 20.4874 14.2825C20.1592 13.9596 19.7141 13.7782 19.25 13.7782ZM14.2975 13.7782C14.6591 12.7701 15.3295 11.8971 16.2165 11.2796C17.1036 10.6621 18.1634 10.3305 19.25 10.3305C20.3366 10.3305 21.3964 10.6621 22.2835 11.2796C23.1705 11.8971 23.8409 12.7701 24.2025 13.7782H26.25C26.7141 13.7782 27.1593 13.9596 27.4874 14.2825C27.8156 14.6054 28 15.0434 28 15.5C28 15.9566 27.8156 16.3946 27.4874 16.7175C27.1593 17.0404 26.7141 17.2218 26.25 17.2218H24.2025C23.8409 18.2299 23.1705 19.1029 22.2835 19.7204C21.3964 20.3379 20.3366 20.6695 19.25 20.6695C18.1634 20.6695 17.1036 20.3379 16.2165 19.7204C15.3295 19.1029 14.6591 18.2299 14.2975 17.2218H1.75C1.28587 17.2218 0.840752 17.0404 0.512563 16.7175C0.184375 16.3946 0 15.9566 0 15.5C0 15.0434 0.184375 14.6054 0.512563 14.2825C0.840752 13.9596 1.28587 13.7782 1.75 13.7782H14.2975ZM8.75 24.1088C8.28587 24.1088 7.84075 24.2902 7.51256 24.6131C7.18437 24.9359 7 25.3739 7 25.8305C7 26.2872 7.18437 26.7251 7.51256 27.048C7.84075 27.3709 8.28587 27.5523 8.75 27.5523C9.21413 27.5523 9.65925 27.3709 9.98744 27.048C10.3156 26.7251 10.5 26.2872 10.5 25.8305C10.5 25.3739 10.3156 24.9359 9.98744 24.6131C9.65925 24.2902 9.21413 24.1088 8.75 24.1088ZM3.7975 24.1088C4.15905 23.1006 4.82954 22.2276 5.71655 21.6101C6.60356 20.9926 7.6634 20.661 8.75 20.661C9.8366 20.661 10.8964 20.9926 11.7835 21.6101C12.6705 22.2276 13.3409 23.1006 13.7025 24.1088H26.25C26.7141 24.1088 27.1593 24.2902 27.4874 24.6131C27.8156 24.9359 28 25.3739 28 25.8305C28 26.2872 27.8156 26.7251 27.4874 27.048C27.1593 27.3709 26.7141 27.5523 26.25 27.5523H13.7025C13.3409 28.5604 12.6705 29.4334 11.7835 30.0509C10.8964 30.6684 9.8366 31 8.75 31C7.6634 31 6.60356 30.6684 5.71655 30.0509C4.82954 29.4334 4.15905 28.5604 3.7975 27.5523H1.75C1.28587 27.5523 0.840752 27.3709 0.512563 27.048C0.184375 26.7251 0 26.2872 0 25.8305C0 25.3739 0.184375 24.9359 0.512563 24.6131C0.840752 24.2902 1.28587 24.1088 1.75 24.1088H3.7975Z" fill="black"/>
</svg>
