<svg width="41" height="40" viewBox="0 0 41 40" fill="none" xmlns="http://www.w3.org/2000/svg">
<path d="M40.0266 10.315C40.0184 9.42889 39.7727 8.56123 39.3149 7.80253C38.8571 7.04382 38.2041 6.42186 37.4241 6.00156C36.644 5.58125 35.7654 5.378 34.88 5.413C33.9946 5.44801 33.1348 5.71999 32.3903 6.20058C31.6458 6.68116 31.044 7.35273 30.6475 8.14521C30.2511 8.93769 30.0746 9.82204 30.1365 10.706C30.1983 11.5899 30.4963 12.4411 30.9992 13.1706C31.5022 13.9002 32.1917 14.4813 32.9959 14.8536C32.2202 17.1311 30.4708 21.1086 27.6486 21.1086C23.8527 21.1086 22.6974 15.9263 21.8227 10.9256C22.9322 10.5465 23.8711 9.78598 24.4724 8.77942C25.0737 7.77285 25.2982 6.58558 25.106 5.42896C24.9139 4.27234 24.3175 3.22144 23.4231 2.46336C22.5287 1.70527 21.3943 1.28918 20.2218 1.28918C19.0493 1.28918 17.9149 1.70527 17.0205 2.46336C16.1261 3.22144 15.5297 4.27234 15.3376 5.42896C15.1454 6.58558 15.3699 7.77285 15.9712 8.77942C16.5725 9.78598 17.5114 10.5465 18.6209 10.9256C17.6967 16.0253 16.5744 21.1086 12.795 21.1086C9.97284 21.1086 8.22342 17.1311 7.44773 14.8536C8.49807 14.3665 9.34453 13.5269 9.83996 12.4805C10.3354 11.4341 10.4485 10.2472 10.1595 9.12606C9.8706 8.00495 9.19792 7.02054 8.25844 6.34396C7.31896 5.66739 6.17209 5.34143 5.0172 5.42276C3.86232 5.50409 2.77245 5.98757 1.93706 6.78913C1.10167 7.5907 0.5736 8.65967 0.444639 9.81021C0.315679 10.9608 0.593987 12.1201 1.23118 13.0867C1.86838 14.0534 2.82417 14.7661 3.93239 15.1011L6.62253 31.275C6.6858 31.6655 6.88724 32.0203 7.19017 32.2748C7.49309 32.5292 7.87735 32.6664 8.27293 32.6613H32.2037C32.5993 32.6664 32.9835 32.5292 33.2864 32.2748C33.5894 32.0203 33.7908 31.6655 33.8541 31.275L36.5442 15.1011C37.5627 14.7848 38.4519 14.1481 39.0793 13.2857C39.7068 12.4233 40.039 11.3814 40.0266 10.315ZM32.1872 35.0709H8.25643C7.81871 35.0709 7.39893 35.2448 7.08942 35.5543C6.77991 35.8638 6.60603 36.2836 6.60603 36.7213C6.60603 37.159 6.77991 37.5788 7.08942 37.8883C7.39893 38.1978 7.81871 38.3717 8.25643 38.3717H32.1872C32.6249 38.3717 33.0447 38.1978 33.3542 37.8883C33.6637 37.5788 33.8376 37.159 33.8376 36.7213C33.8376 36.2836 33.6637 35.8638 33.3542 35.5543C33.0447 35.2448 32.6249 35.0709 32.1872 35.0709Z" fill="black"/>
</svg>
