<svg width="100" height="100" viewBox="0 0 100 100" fill="none" xmlns="http://www.w3.org/2000/svg">
<path d="M29.1667 62.5H16.6667C15.5616 62.5 14.5018 62.061 13.7204 61.2796C12.939 60.4982 12.5 59.4384 12.5 58.3333V25C12.5 23.8949 12.939 22.8351 13.7204 22.0537C14.5018 21.2723 15.5616 20.8333 16.6667 20.8333H66.6667C67.7717 20.8333 68.8315 21.2723 69.6129 22.0537C70.3943 22.8351 70.8333 23.8949 70.8333 25V37.5" stroke="black" stroke-width="8.33333" stroke-linecap="round" stroke-linejoin="round"/>
<path d="M50.0001 79.1667H33.3334C32.2283 79.1667 31.1685 78.7277 30.3871 77.9463C29.6057 77.1649 29.1667 76.1051 29.1667 75V41.6667C29.1667 40.5616 29.6057 39.5018 30.3871 38.7204C31.1685 37.939 32.2283 37.5 33.3334 37.5H83.3334C84.4385 37.5 85.4983 37.939 86.2797 38.7204C87.0611 39.5018 87.5001 40.5616 87.5001 41.6667V52.0833" stroke="black" stroke-width="8.33333" stroke-linecap="round" stroke-linejoin="round"/>
<path d="M66.3333 55.9875C65.925 54.5985 65.1619 53.3398 64.1191 52.3355C63.0763 51.3311 61.7899 50.6158 60.3865 50.2599C58.9832 49.9041 57.5113 49.92 56.1159 50.306C54.7206 50.6921 53.4499 51.4351 52.429 52.4617C51.4082 53.4883 50.6724 54.7632 50.2942 56.1607C49.916 57.5582 49.9085 59.0302 50.2722 60.4315C50.636 61.8328 51.3586 63.1152 52.3688 64.1523C53.379 65.1894 54.642 65.9454 56.0333 66.3458M66.6666 79.1667H91.6666M91.6666 79.1667L79.1666 66.6667M91.6666 79.1667L79.1666 91.6667" stroke="black" stroke-width="8.33333" stroke-linecap="round" stroke-linejoin="round"/>
</svg>
