<svg width="28" height="31" viewBox="0 0 28 31" fill="none" xmlns="http://www.w3.org/2000/svg">
<path fill-rule="evenodd" clip-rule="evenodd" d="M12.4375 0.75C10.5738 0.750159 8.73717 1.196 7.08084 2.05033C5.4245 2.90466 3.99648 4.1427 2.91593 5.66116C1.83538 7.17962 1.13362 8.93448 0.869206 10.7793C0.604792 12.6241 0.785388 14.5055 1.39593 16.2663C2.00647 18.0271 3.02925 19.6164 4.37893 20.9016C5.72862 22.1868 7.36608 23.1306 9.15469 23.6542C10.9433 24.1778 12.8312 24.2661 14.6609 23.9118C16.4906 23.5574 18.209 22.7706 19.6727 21.617L24.6942 26.6385C24.9536 26.889 25.3009 27.0276 25.6614 27.0244C26.0219 27.0213 26.3668 26.8767 26.6217 26.6217C26.8767 26.3668 27.0213 26.0219 27.0244 25.6614C27.0275 25.3009 26.8889 24.9536 26.6385 24.6943L21.617 19.6728C22.9755 17.9494 23.8213 15.8783 24.0577 13.6966C24.2942 11.5149 23.9116 9.31078 22.9538 7.33638C21.996 5.36198 20.5017 3.69711 18.6419 2.53232C16.7821 1.36752 14.6319 0.749853 12.4375 0.75ZM3.49998 12.4375C3.49998 10.0671 4.44161 7.79384 6.11772 6.11773C7.79382 4.44163 10.0671 3.5 12.4375 3.5C14.8079 3.5 17.0811 4.44163 18.7572 6.11773C20.4334 7.79384 21.375 10.0671 21.375 12.4375C21.375 14.8079 20.4334 17.0812 18.7572 18.7573C17.0811 20.4334 14.8079 21.375 12.4375 21.375C10.0671 21.375 7.79382 20.4334 6.11772 18.7573C4.44161 17.0812 3.49998 14.8079 3.49998 12.4375Z" fill="black"/>
</svg>
