<svg width="48" height="48" viewBox="0 0 48 48" fill="none" xmlns="http://www.w3.org/2000/svg">
<path d="M18.5 44L17.7 37.6C17.2667 37.4333 16.8587 37.2333 16.476 37C16.0933 36.7667 15.718 36.5167 15.35 36.25L9.39999 38.75L3.89999 29.25L9.04999 25.35C9.01666 25.1167 8.99999 24.892 8.99999 24.676V23.326C8.99999 23.1087 9.01666 22.8833 9.04999 22.65L3.89999 18.75L9.39999 9.25L15.35 11.75C15.7167 11.4833 16.1 11.2333 16.5 11C16.9 10.7667 17.3 10.5667 17.7 10.4L18.5 4H29.5L30.3 10.4C30.7333 10.5667 31.142 10.7667 31.526 11C31.91 11.2333 32.2847 11.4833 32.65 11.75L38.6 9.25L44.1 18.75L38.95 22.65C38.9833 22.8833 39 23.1087 39 23.326V24.674C39 24.8913 38.9667 25.1167 38.9 25.35L44.05 29.25L38.55 38.75L32.65 36.25C32.2833 36.5167 31.9 36.7667 31.5 37C31.1 37.2333 30.7 37.4333 30.3 37.6L29.5 44H18.5ZM24.1 31C26.0333 31 27.6833 30.3167 29.05 28.95C30.4167 27.5833 31.1 25.9333 31.1 24C31.1 22.0667 30.4167 20.4167 29.05 19.05C27.6833 17.6833 26.0333 17 24.1 17C22.1333 17 20.4747 17.6833 19.124 19.05C17.7733 20.4167 17.0987 22.0667 17.1 24C17.1013 25.9333 17.7767 27.5833 19.126 28.95C20.4753 30.3167 22.1333 31 24.1 31Z" fill="black"/>
</svg>
