<svg width="166" height="162" viewBox="0 0 166 162" fill="none" xmlns="http://www.w3.org/2000/svg">
<path d="M79.5012 6.23081C79.5012 4.5783 78.8286 2.99346 77.6312 1.82496C76.4339 0.656458 74.8099 0 73.1166 0C71.4233 0 69.7994 0.656458 68.602 1.82496C67.4047 2.99346 66.732 4.5783 66.732 6.23081V22.6635C66.732 24.316 67.4047 25.9009 68.602 27.0694C69.7994 28.2379 71.4233 28.8943 73.1166 28.8943C74.8099 28.8943 76.4339 28.2379 77.6312 27.0694C78.8286 25.9009 79.5012 24.316 79.5012 22.6635V6.23081ZM31.7784 22.3894C30.5806 21.2468 28.9706 20.6093 27.2957 20.6144C25.6207 20.6195 24.0149 21.2667 22.8244 22.4165C21.6339 23.5664 20.9541 25.1267 20.9315 26.7612C20.9089 28.3956 21.5454 29.9733 22.7037 31.154L35.2175 43.4744C35.7928 44.1093 36.4946 44.6229 37.2802 44.984C38.0659 45.345 38.9187 45.5459 39.7865 45.5743C40.6544 45.6026 41.5191 45.458 42.3277 45.149C43.1363 44.8401 43.8718 44.3735 44.4893 43.7777C45.1068 43.1819 45.5933 42.4694 45.919 41.6838C46.2446 40.8982 46.4027 40.056 46.3834 39.2088C46.3642 38.3616 46.168 37.5271 45.807 36.7564C45.446 35.9857 44.9276 35.2949 44.2837 34.7264L31.7784 22.3894ZM123.53 31.154C124.652 29.9678 125.259 28.4025 125.222 26.7882C125.186 25.1738 124.508 23.6363 123.333 22.4999C122.157 21.3634 120.575 20.7168 118.921 20.6962C117.266 20.6756 115.668 21.2826 114.463 22.3894L101.95 34.7181C101.325 35.2915 100.826 35.9816 100.481 36.7475C100.136 37.5133 99.9524 38.3391 99.9414 39.1756C99.9305 40.0121 100.092 40.8422 100.417 41.6164C100.742 42.3906 101.223 43.093 101.832 43.6817C102.441 44.2705 103.166 44.7335 103.962 45.0432C104.758 45.353 105.61 45.503 106.467 45.4844C107.324 45.4659 108.169 45.2791 108.95 44.9352C109.732 44.5913 110.434 44.0973 111.016 43.4827L123.53 31.154ZM81.2974 65.1826C72.5718 61.8262 64.3229 70.3085 67.5918 78.5581L98.0762 155.405C101.566 164.194 114.259 164.203 117.749 155.405L129.446 125.97L159.309 114.464C168.23 111.025 168.23 98.6545 159.309 95.2151L81.2974 65.1826ZM23.0697 65.7392H6.38461C4.69131 65.7392 3.06736 66.3956 1.87001 67.5641C0.672662 68.7327 0 70.3175 0 71.97C0 73.6225 0.672662 75.2073 1.87001 76.3758C3.06736 77.5443 4.69131 78.2008 6.38461 78.2008H23.0697C24.763 78.2008 26.387 77.5443 27.5843 76.3758C28.7817 75.2073 29.4544 73.6225 29.4544 71.97C29.4544 70.3175 28.7817 68.7327 27.5843 67.5641C26.387 66.3956 24.763 65.7392 23.0697 65.7392ZM44.2837 109.222C45.4426 108.042 46.0802 106.465 46.059 104.831C46.0377 103.197 45.3595 101.636 44.1703 100.486C42.9811 99.3348 41.3762 98.6861 39.7016 98.6793C38.0269 98.6724 36.4165 99.308 35.2175 100.449L22.7037 112.778C22.1134 113.359 21.6463 114.048 21.329 114.806C21.0117 115.564 20.8504 116.375 20.8544 117.194C20.8583 118.012 21.0274 118.822 21.352 119.576C21.6766 120.331 22.1504 121.016 22.7463 121.592C23.3421 122.168 24.0484 122.624 24.8248 122.934C25.6011 123.243 26.4324 123.401 27.2711 123.397C28.1098 123.393 28.9395 123.228 29.7129 122.911C30.4863 122.594 31.1881 122.132 31.7784 121.551L44.2837 109.222Z" fill="#14AE5C"/>
</svg>
