<svg width="27" height="31" viewBox="0 0 27 31" fill="none" xmlns="http://www.w3.org/2000/svg">
<path fill-rule="evenodd" clip-rule="evenodd" d="M0.375 2.5625C0.375 1.98234 0.605468 1.42594 1.0157 1.0157C1.42594 0.605468 1.98234 0.375 2.5625 0.375H24.4375C25.0177 0.375 25.5741 0.605468 25.9843 1.0157C26.3945 1.42594 26.625 1.98234 26.625 2.5625V5.60458C26.6248 6.37807 26.3174 7.11981 25.7704 7.66667L17.875 15.5621V26.3888C17.875 26.6622 17.8052 26.9312 17.672 27.17C17.5389 27.4089 17.3469 27.6098 17.1143 27.7535C16.8816 27.8973 16.6161 27.9792 16.3429 27.9915C16.0697 28.0038 15.7979 27.9461 15.5533 27.8238L10.1327 25.1142C9.82991 24.9628 9.57526 24.7301 9.39727 24.4421C9.21929 24.1541 9.12501 23.8223 9.125 23.4838V15.5621L1.22958 7.66667C0.682564 7.11981 0.375165 6.37807 0.375 5.60458V2.5625Z" fill="black"/>
</svg>
